<svg width="28" height="28" viewBox="0 0 28 28" fill="none" xmlns="http://www.w3.org/2000/svg">
<g id="Icon in Circle">
<path id="Oval" fill-rule="evenodd" clip-rule="evenodd" d="M13.6667 27.3889C21.2146 27.3889 27.3333 21.2701 27.3333 13.7222C27.3333 6.17432 21.2146 0.055542 13.6667 0.055542C6.11877 0.055542 0 6.17432 0 13.7222C0 21.2701 6.11877 27.3889 13.6667 27.3889Z" fill="#D2D9FF" fill-opacity="0.5"/>
<g id="comment">
<g id="Group">
<path id="Path" d="M19.3571 13.5938C19.3571 10.8108 16.6536 8.62415 13.1947 8.62415C9.73574 8.62415 7.03223 10.8108 7.03223 13.5938C7.03223 16.3968 9.79538 18.6629 13.1947 18.6629C13.7513 18.6629 14.3079 18.6033 14.8446 18.4641L17.886 19.7165C17.9059 19.7563 17.9457 19.7563 17.9656 19.7563C18.0053 19.7563 18.0451 19.7364 18.0848 19.7165C18.1445 19.6768 18.1643 19.6171 18.1643 19.5376L17.9656 16.7943C18.8601 15.8998 19.3571 14.7667 19.3571 13.5938Z" fill="white"/>
</g>
</g>
</g>
</svg>
