<svg xmlns="http://www.w3.org/2000/svg" width="676" height="676" viewBox="0 0 676 676" version="1.1"><path d="M 312.500 0.599 C 258.726 4.636, 203.389 22.715, 158.668 50.857 C 76.195 102.756, 20.444 186.024, 4.580 281 C -9.377 364.560, 7.562 449.002, 52.514 519.958 C 76.807 558.303, 112.225 594.458, 150 619.471 C 204.864 655.800, 266.554 675.131, 328.500 675.403 C 347.494 675.487, 351.252 675.245, 356 673.637 C 384.097 664.121, 399.735 636.117, 393.489 606.500 C 391.576 597.429, 387.424 589.205, 380.360 580.500 C 377.236 576.650, 373.394 570.761, 371.822 567.412 C 368.957 561.311, 366.050 549.940, 366.017 544.708 C 365.983 539.226, 369.213 526.392, 372.236 520 C 376.506 510.968, 388.365 499.128, 397.353 494.922 C 409.603 489.189, 411.127 489.025, 452.050 489.012 C 504.269 488.995, 520.552 487.471, 543.597 480.442 C 603.624 462.133, 651.268 413.870, 668.534 353.883 C 672.184 341.200, 674.863 327.419, 675.217 319.500 C 675.340 316.750, 675.726 324.175, 676.073 336 C 676.481 349.870, 676.566 344.725, 676.311 321.500 C 675.839 278.483, 675 267.408, 670.578 245.870 C 659.599 192.392, 634.033 144.872, 594.079 103.679 C 540.486 48.424, 469.085 13.855, 385 2.451 C 374.025 0.963, 324.504 -0.303, 312.500 0.599 M 233 77.567 C 212.841 81.932, 195.763 98.455, 190.492 118.693 C 185.605 137.453, 192.578 159.443, 207.682 172.904 C 233.444 195.866, 273.478 189.642, 291.583 159.860 C 311.283 127.453, 292.373 85.456, 254.500 77.504 C 245.986 75.717, 241.482 75.730, 233 77.567 M 421 77.497 C 400.220 82.177, 382.755 99, 377.913 119 C 376.077 126.583, 376.302 139.263, 378.402 146.500 C 385.058 169.442, 408.033 186.949, 431.540 186.988 C 455.389 187.028, 476.020 171.963, 484.169 148.556 C 495.841 115.028, 470.683 78.743, 434.176 76.452 C 430.340 76.212, 424.735 76.656, 421 77.497 M 122.500 227.022 C 105.251 230.484, 90.038 242.017, 82.489 257.355 C 71.387 279.911, 75.744 303.987, 94.128 321.666 C 115.813 342.521, 148.990 342.015, 170.502 320.502 C 192.812 298.193, 192.636 265.483, 170.086 242.905 C 156.801 229.603, 139.091 223.692, 122.500 227.022 M 533.500 227.408 C 501.220 234.829, 481.818 267.282, 491.478 297.698 C 498.834 320.863, 520.443 337.038, 543.960 336.985 C 578.046 336.908, 605.403 304.373, 598.603 272 C 593.288 246.695, 572.047 227.924, 547.083 226.470 C 542.572 226.207, 537.070 226.587, 533.500 227.408 M 0.426 337.500 C 0.427 349.600, 0.571 354.413, 0.747 348.195 C 0.923 341.977, 0.922 332.077, 0.746 326.195 C 0.569 320.313, 0.425 325.400, 0.426 337.500" stroke="none" fill="#fffcfc" fill-rule="evenodd"/><path d="" stroke="none" fill="#fcfcfc" fill-rule="evenodd"/></svg>