<svg width="17" height="17" viewBox="0 0 17 17" fill="none" xmlns="http://www.w3.org/2000/svg">
<g id="Icons/Padlock Unlocked/Light">
<g id="tag">
<g id="Group">
<path id="Shape" fill-rule="evenodd" clip-rule="evenodd" d="M7.59301 1.81427L14.6492 8.87044C15.2285 9.44983 15.2285 10.3892 14.6492 10.9686L9.96856 15.6492C9.38917 16.2285 8.44983 16.2285 7.87045 15.6492L0.814272 8.593C0.767896 8.54664 0.741835 8.48376 0.741821 8.41818V1.98909C0.741821 1.85253 0.852529 1.74182 0.989094 1.74182H7.41818C7.48376 1.74183 7.54664 1.76789 7.59301 1.81427ZM3.46182 5.69818C3.46182 6.38101 4.01536 6.93455 4.69818 6.93454C5.02609 6.93454 5.34056 6.80429 5.57243 6.57242C5.80429 6.34056 5.93455 6.02609 5.93455 5.69818C5.93455 5.01536 5.38101 4.46182 4.69818 4.46182C4.01536 4.46182 3.46182 5.01536 3.46182 5.69818Z" fill="#ADB5BD"/>
</g>
</g>
</g>
</svg>
