<svg xmlns="http://www.w3.org/2000/svg" width="176" height="192" viewBox="0 0 176 192" version="1.1"><path d="M 125.001 3.250 C 124.475 4.488, 122.413 11.350, 120.417 18.500 C 118.422 25.650, 116.252 32.068, 115.596 32.763 C 114.940 33.457, 107.680 35.947, 99.464 38.296 C 85.746 42.217, 84.446 42.790, 83.562 45.305 C 82.054 49.593, 84.885 51.349, 100 55.499 C 107.425 57.538, 114.175 59.568, 115 60.010 C 115.880 60.481, 118.123 66.744, 120.426 75.156 C 124.599 90.404, 125.938 93, 129.632 93 C 132.913 93, 134.199 90.378, 138.459 75 C 140.516 67.575, 142.717 61.017, 143.350 60.427 C 143.982 59.836, 150.800 57.637, 158.500 55.538 C 173.671 51.405, 176.642 49.694, 175.632 45.672 C 174.933 42.886, 173.365 42.246, 154.581 37.077 C 148.576 35.425, 143.340 33.550, 142.945 32.912 C 142.551 32.273, 140.339 25.172, 138.030 17.132 C 135.721 9.092, 133.307 2.180, 132.666 1.772 C 130.134 0.162, 125.973 0.964, 125.001 3.250 M 43.250 35.751 C 42.288 36.714, 39.749 43.802, 37.609 51.501 C 35.469 59.201, 33.219 65.996, 32.609 66.601 C 31.999 67.207, 25.425 69.388, 18 71.449 C 3.375 75.507, 0 77.079, -0 79.832 C -0 83.624, 2.639 85.057, 17 89.063 C 24.975 91.288, 32.017 93.646, 32.649 94.304 C 33.282 94.962, 35.641 102.025, 37.892 110 C 41.803 123.855, 43.431 127, 46.691 127 C 49.642 127, 51.759 122.731, 55.384 109.467 C 57.483 101.785, 59.718 94.962, 60.350 94.304 C 60.983 93.646, 68.025 91.288, 76 89.063 C 89.876 85.192, 93 83.583, 93 80.309 C 93 77.387, 88.829 75.314, 75.499 71.609 C 67.799 69.469, 60.983 67.219, 60.351 66.609 C 59.718 65.999, 57.359 58.975, 55.108 51 C 50.384 34.265, 47.912 31.086, 43.250 35.751 M 99.663 101.250 C 98.903 102.487, 96.601 109.575, 94.548 117 C 92.495 124.425, 90.210 130.979, 89.469 131.565 C 88.729 132.151, 81.736 134.401, 73.930 136.565 C 58.584 140.820, 55.694 142.691, 57.952 146.910 C 59.451 149.712, 60.569 150.175, 76.189 154.472 C 85.383 157.001, 90.090 158.773, 90.526 159.869 C 90.883 160.766, 92.963 167.790, 95.148 175.478 C 97.333 183.166, 99.656 189.797, 100.310 190.213 C 100.965 190.629, 102.747 190.976, 104.271 190.985 C 107.628 191.003, 107.785 190.673, 112.598 173.500 C 114.602 166.350, 116.689 159.941, 117.236 159.258 C 117.784 158.575, 121.442 157.082, 125.366 155.941 C 148.795 149.130, 148.944 149.071, 149.619 146.381 C 150.651 142.270, 147.665 140.512, 132.713 136.430 C 125.129 134.360, 118.333 132.178, 117.610 131.583 C 116.886 130.987, 114.609 124.425, 112.550 117 C 108.274 101.586, 106.974 99, 103.500 99 C 102.032 99, 100.491 99.904, 99.663 101.250" stroke="none" fill="#fffcfc" fill-rule="evenodd"/><path d="" stroke="none" fill="#fcfcfc" fill-rule="evenodd"/></svg>