<svg xmlns="http://www.w3.org/2000/svg" width="256" height="256" viewBox="0 0 256 256" version="1.1"><path d="" stroke="none" fill="#fcfcfc" fill-rule="evenodd"/><path d="M 88 58.935 L 85.500 59.698 81.376 61.805 L 77.252 63.912 74.663 66.988 L 72.075 70.064 70.215 76.282 L 68.354 82.500 63.429 100.278 L 58.504 118.057 54.502 119.034 L 50.500 120.011 39.500 123.545 L 28.500 127.079 21.142 130.712 L 13.783 134.345 8.509 139.166 L 3.234 143.987 1.503 147.634 L -0.227 151.281 0.237 156.110 L 0.701 160.939 2.974 164.220 L 5.248 167.500 9.874 171.305 L 14.500 175.109 22.500 178.988 L 30.500 182.867 36.654 184.912 L 42.808 186.957 52.455 189.463 L 62.102 191.970 75.801 193.958 L 89.500 195.947 106 197.095 L 122.500 198.242 139.110 197.590 L 155.719 196.937 169.025 195.460 L 182.330 193.984 194.671 191.485 L 207.012 188.986 217.756 185.409 L 228.500 181.832 236.300 177.697 L 244.100 173.562 248.493 169.352 L 252.887 165.142 254.943 161.111 L 257 157.080 257 153.498 L 257 149.916 255.750 148.279 L 254.500 146.642 248.500 140.571 L 242.500 134.500 233.901 130.314 L 225.301 126.127 214.705 122.830 L 204.109 119.532 200.032 102.516 L 195.955 85.500 193.871 77.761 L 191.787 70.021 188.092 66.214 L 184.397 62.407 179.709 60.203 L 175.022 58 132.761 58.086 L 90.500 58.172 88 58.935 M 195.696 134.003 L 185.891 138.741 177.524 141.406 L 169.157 144.072 162.329 145.504 L 155.500 146.937 145.500 148.106 L 135.500 149.275 123.500 148.709 L 111.500 148.143 101.227 146.048 L 90.953 143.953 82.727 141.355 L 74.500 138.758 64.801 134.458 L 55.101 130.159 53.051 134.395 L 51 138.631 51.004 142.066 L 51.007 145.500 53.002 148.771 L 54.996 152.041 59.519 154.910 L 64.041 157.778 72.271 160.372 L 80.500 162.966 90 164.462 L 99.500 165.959 116.591 166.927 L 133.682 167.895 146.091 166.957 L 158.500 166.019 167 164.473 L 175.500 162.928 183.914 160.294 L 192.328 157.660 198.339 153.580 L 204.349 149.500 206.236 146 L 208.122 142.500 207.746 136.735 L 207.370 130.970 206.435 130.118 L 205.500 129.266 195.696 134.003 M 0.286 154.500 L 0.300 159.500 0.718 156.736 L 1.135 153.973 0.704 151.736 L 0.272 149.500 0.286 154.500" stroke="none" fill="#fffcfc" fill-rule="evenodd"/></svg>