<svg xmlns="http://www.w3.org/2000/svg" width="320" height="320" viewBox="0 0 320 320" version="1.1"><path d="M 148.539 3.058 C 117.161 7.916, 92.651 30.038, 84.994 60.410 C 81.209 75.422, 82.859 96.188, 88.966 110.425 C 94.996 124.481, 109.178 139.758, 122.709 146.774 C 136.215 153.777, 143.391 155.477, 159.500 155.489 C 171.402 155.498, 174.624 155.149, 181 153.157 C 192.772 149.479, 203.233 143.527, 211.511 135.796 C 223.867 124.257, 230.918 111.945, 234.520 95.617 C 236.874 84.952, 236.160 66.507, 233.008 56.500 C 224.977 31.007, 204.658 11.434, 179.560 5.015 C 170.647 2.736, 156.418 1.838, 148.539 3.058 M 83 150.723 C 72.662 157.624, 56.309 173.801, 49.316 184.043 C 39.406 198.559, 32.015 215.597, 27.429 234.500 C 23.832 249.323, 23.897 249.699, 31.505 258.217 C 50.191 279.140, 75.118 296.546, 101.201 306.887 C 110.136 310.430, 125.059 314.316, 136.500 316.080 C 146.759 317.662, 172.172 317.669, 182.500 316.093 C 201.130 313.250, 223.021 305.901, 239 297.124 C 254.888 288.397, 274.949 272.365, 287.077 258.701 C 295.149 249.607, 295.187 249.403, 291.571 234.500 C 284.637 205.920, 271.043 181.597, 251.985 163.668 C 244.042 156.196, 228.479 145, 226.036 145 C 225.353 145, 221.578 147.776, 217.647 151.170 C 208.247 159.285, 201.360 163.608, 191.506 167.582 C 160.861 179.939, 128.020 174.080, 101.837 151.584 C 97.622 147.963, 93.572 145.011, 92.837 145.025 C 92.102 145.038, 87.675 147.603, 83 150.723 M 151.012 192.488 L 142.553 200.991 148.277 206.774 C 152.157 210.695, 153.996 213.354, 153.989 215.029 C 153.983 216.388, 151.313 231.900, 148.057 249.500 L 142.137 281.500 150.833 290.257 L 159.528 299.014 168.191 290.257 L 176.854 281.500 170.938 249.500 C 167.685 231.900, 165.017 216.388, 165.011 215.029 C 165.004 213.353, 166.845 210.694, 170.731 206.767 L 176.461 200.976 167.966 192.480 L 159.471 183.985 151.012 192.488" stroke="none" fill="#ADB5BD" fill-rule="evenodd"/><path d="" stroke="none" fill="#fcfcfc" fill-rule="evenodd"/></svg>